<?xml version="1.0" encoding="utf-8"?>
<!-- Generator: Adobe Illustrator 16.0.0, SVG Export Plug-In . SVG Version: 6.00 Build 0)  -->
<!DOCTYPE svg PUBLIC "-//W3C//DTD SVG 1.1//EN" "http://www.w3.org/Graphics/SVG/1.1/DTD/svg11.dtd">
<svg version="1.1" id="Layer_1" xmlns="http://www.w3.org/2000/svg" xmlns:xlink="http://www.w3.org/1999/xlink" x="0px" y="0px"
	 width="500px" height="500px" viewBox="0 0 500 500" enable-background="new 0 0 500 500" xml:space="preserve">
<path fill="#FEFBE1" stroke="#C78451" stroke-width="6" stroke-miterlimit="10" d="M391.716,248.306
	c0,74.864-58.47,135.563-130.593,135.563c-72.124,0-130.591-60.699-130.591-135.563c0-74.868,58.467-135.559,130.591-135.559
	C333.246,112.747,391.716,173.438,391.716,248.306z"/>
<path fill="#FFF2A1" stroke="#C78451" stroke-width="0.25" stroke-miterlimit="10" d="M357.656,248.302
	c0,55.342-43.22,100.213-96.535,100.213c-53.314,0-96.532-44.871-96.532-100.213c0-55.34,43.218-100.201,96.532-100.201
	C314.437,148.102,357.656,192.962,357.656,248.302z"/>
<polygon fill="#FFF2A1" stroke="#C78451" stroke-width="2" stroke-miterlimit="10" points="240.729,97.31 273.018,48.63 
	299.032,100.933 "/>
<path fill="#FFF2A1" stroke="#F9A365" stroke-width="2" stroke-miterlimit="10" d="M137.188,468.55"/>
<polygon fill="#FFF388" stroke="#C78451" stroke-width="2" stroke-miterlimit="10" points="111.038,166.54 43.604,122.612 
	115.831,110.782 101.754,28.134 168.592,77.354 209.946,17.078 222.91,96.918 112.579,166.763 "/>
<path fill="#FFF2A1" stroke="#C78451" stroke-width="2" stroke-miterlimit="10" d="M118.537,178.29"/>
<polygon fill="#FFF2A1" stroke="#C78451" stroke-width="2" stroke-miterlimit="10" points="317.452,103.188 366.688,71.753 
	369.293,130.112 "/>
<polygon fill="#FFF2A1" stroke="#C78451" stroke-width="2" stroke-miterlimit="10" points="374.984,145.131 433.203,140.356 
	408.228,193.167 "/>
<polygon fill="#FFF2A1" stroke="#C78451" stroke-width="2" stroke-miterlimit="10" points="413.133,210.609 462.916,241.168 
	411.555,269.006 "/>
<polygon fill="#FFF2A1" stroke="#C78451" stroke-width="2" stroke-miterlimit="10" points="413.156,293.602 440.748,345.088 
	382.361,343.244 "/>
<polygon fill="#FFF2A1" stroke="#C78451" stroke-width="2" stroke-miterlimit="10" points="366.66,360.611 377.033,418.098 
	322.059,398.342 "/>
<polygon fill="#FFF2A1" stroke="#C78451" stroke-width="2" stroke-miterlimit="10" points="299.089,401.068 269.385,451.369 
	240.672,400.496 "/>
<polygon fill="#FFF2A1" stroke="#C78451" stroke-width="2" stroke-miterlimit="10" points="228.061,400.086 185.957,440.578 
	171.936,383.869 "/>
<polygon fill="#FFF2A1" stroke="#C78451" stroke-width="2" stroke-miterlimit="10" points="160.298,372.65 106.216,394.734 
	114.126,336.857 "/>
<polygon fill="#FFF2A1" stroke="#C78451" stroke-width="2" stroke-miterlimit="10" points="109.131,314.613 54.574,293.729 
	99.937,256.922 "/>
<polygon fill="#FFF2A1" stroke="#C78451" stroke-width="2" stroke-miterlimit="10" points="100.203,239.799 50.745,208.708 
	102.396,181.422 "/>
</svg>
